<?xml version="1.0" encoding="utf-8"?>
<!-- Generator: Adobe Illustrator 25.0.0, SVG Export Plug-In . SVG Version: 6.00 Build 0)  -->
<svg version="1.1" id="Layer_1" xmlns="http://www.w3.org/2000/svg" xmlns:xlink="http://www.w3.org/1999/xlink" x="0px" y="0px"
	 viewBox="0 0 97.06 119.5" style="enable-background:new 0 0 97.06 119.5;" xml:space="preserve">
<style type="text/css">
	.st0{opacity:0.25;enable-background:new    ;}
	.st1{fill:#C2B69C;}
	.st2{fill:none;stroke:#97999C;stroke-width:0.75;stroke-miterlimit:10;}
	.st3{opacity:0.25;fill:#C2B69C;enable-background:new    ;}
</style>
<g>
	<g id="JeuLSu_2_" class="st0">
		<g>
			<path class="st1" d="M20.98,81.4c0.36-0.09,0.75-0.11,1.07-0.27c1.33-0.7,2.06-2.24,1.84-3.89c-0.08-0.58-0.23-1.17-0.4-1.73
				c-0.4-1.31-0.84-2.62-1.26-3.92c-0.22-0.69-0.22-0.71-0.92-0.57c-3.58,0.69-6.9,0-9.92-1.99c-2.47-1.62-4.16-3.92-5.29-6.63
				c-1.07-2.57-1.67-5.24-1.5-8.04c0.16-2.68,0.76-5.26,1.81-7.74c1.19-2.79,2.56-5.47,4.27-7.98c0.3-0.44,0.22-0.84,0.05-1.29
				c-1-2.57-1.85-5.18-2.22-7.92c-0.45-3.35-0.35-6.68,0.47-9.96c0.55-2.19,1.31-4.33,2.84-6.08c0.45-0.51,1.04-0.92,1.58-1.34
				c0.31-0.24,0.6-0.16,0.91,0.1c1.21,1.06,2.04,2.4,2.84,3.76c3.6,6.16,3.45,12.51,0.93,18.96c-0.72,1.85-1.59,3.64-2.42,5.44
				c-0.24,0.53-0.25,1.03-0.06,1.57c0.48,1.34,0.95,2.69,1.4,4.04c0.12,0.35,0.32,0.45,0.64,0.42c0.46-0.05,0.91-0.14,1.37-0.16
				c4.57-0.12,8.03,1.69,10.09,5.86c2.08,4.19,2.05,8.45,0.23,12.7c-0.8,1.86-2.21,3.28-3.79,4.51c-0.38,0.3-0.44,0.57-0.31,1
				c0.5,1.62,1.08,3.23,1.42,4.88c0.45,2.13,0.38,4.29-0.3,6.39c-0.4,1.22-1.14,2.18-2.23,2.87c-3.21,2.03-6.95,1.28-9.15-1.84
				c-1.12-1.6-1.71-3.33-1.21-5.28c0.67-2.61,3.91-4.4,6.51-2.19c1.36,1.16,1.82,3.5,1.03,5.25c-0.14,0.3-0.27,0.6-0.41,0.91
				C20.91,81.28,20.94,81.34,20.98,81.4z M15.76,62c-0.25-0.12-0.34-0.16-0.43-0.21c-0.09-0.05-0.18-0.1-0.26-0.16
				c-1.77-1.32-2.95-3.07-3.46-5.19c-0.64-2.66-0.01-5.1,1.9-7.06c0.88-0.9,0.99-1.67,0.47-2.72c-0.27-0.55-0.43-1.16-0.65-1.79
				c-0.11,0.1-0.18,0.13-0.21,0.18c-0.98,1.8-2.09,3.54-2.9,5.42C9,53.33,8.55,56.32,9.18,59.44c1.07,5.24,5.52,8.07,10.51,7.4
				c0.84-0.11,0.96-0.28,0.7-1.07c-1.13-3.45-2.28-6.89-3.43-10.34c-0.06-0.18-0.18-0.33-0.27-0.5c-0.06-0.01-0.11-0.01-0.17-0.02
				c-0.36,0.74-0.81,1.45-1.05,2.23c-0.24,0.76-0.39,1.6-0.34,2.39C15.17,60.32,15.51,61.09,15.76,62z M13.1,34.7
				c0.18-0.29,0.29-0.42,0.35-0.57c0.65-1.47,1.41-2.9,1.93-4.42c0.92-2.72,1.1-5.51,0.25-8.3c-0.36-1.18-1.01-2.2-1.89-3.13
				c-0.62,0.62-0.98,1.33-1.23,2.08c-1.41,4.35-1.42,8.7,0.04,13.04C12.69,33.79,12.88,34.17,13.1,34.7z M26.66,59.7
				c0-1.36-0.29-2.85-0.78-3.82c-1.01-2-2.56-3.22-4.9-3.22c-1.36,0-1.54,0.26-1.09,1.57c1.18,3.42,2.35,6.83,3.52,10.25
				c0.25,0.73,0.36,0.76,0.95,0.28C26.08,63.39,26.58,61.5,26.66,59.7z"/>
			<path class="st1" d="M44.47,14.25c0.61,0.23,1.15,0.41,1.68,0.62c5.45,2.14,10.9,4.28,16.34,6.42c1.2,0.47,2.4,0.95,3.6,1.4
				c0.37,0.14,0.52,0.34,0.52,0.75c0.01,1.31,0.06,2.61,0.08,3.92c0.1,5.58,0.21,11.17,0.29,16.75c0.06,4.09,0.07,8.18,0.11,12.27
				c0.01,1.12,0.05,2.24,0.05,3.36c-0.01,1.91-0.83,3.44-2.3,4.62c-2.34,1.89-5.02,2.64-8,2.17c-1.89-0.3-3.17-1.54-4.26-3
				c-1.69-2.28-1.64-5.67,0.1-8.01c1.7-2.29,4.81-3.22,7.57-2.21c0.92,0.34,1.78,0.82,2.67,1.24c0.21,0.1,0.42,0.18,0.72,0.31
				c0.05-0.33,0.11-0.57,0.11-0.82c-0.03-3.06-0.06-6.11-0.1-9.17c-0.03-2.78-0.07-5.57-0.08-8.35c0-0.48-0.17-0.72-0.61-0.9
				c-4.64-1.86-9.28-3.75-13.92-5.63c-0.7-0.28-0.84-0.19-0.82,0.59c0.08,2.46,0.18,4.92,0.26,7.38c0.1,3.04,0.19,6.07,0.27,9.11
				c0.06,2.26,0.1,4.51,0.16,6.77c0.04,1.49-0.4,2.75-1.52,3.79c-1.89,1.77-4.04,2.88-6.69,2.91c-2.24,0.02-4-0.9-5.38-2.61
				c-2.55-3.16-1.55-7.02,0.17-8.97c1.62-1.83,4.36-2.74,7.27-1.5c0.68,0.29,1.34,0.66,2.01,0.99c0.22,0.11,0.45,0.19,0.84,0.36
				c-0.07-5.86-0.38-11.57-0.56-17.29C44.89,25.81,44.67,20.08,44.47,14.25z M63.44,29.42c-0.02,0-0.04,0-0.06,0
				c0-0.25-0.02-0.51,0-0.76c0.07-0.69-0.26-1-0.88-1.25c-4.5-1.8-8.99-3.64-13.49-5.46c-0.14-0.06-0.29-0.1-0.44-0.12
				c-0.33-0.05-0.53,0.06-0.52,0.43c0.01,0.76-0.02,1.53,0.03,2.29c0.01,0.21,0.24,0.44,0.41,0.6c0.14,0.13,0.36,0.17,0.55,0.25
				c3.33,1.32,6.66,2.63,9.98,3.96c1.27,0.51,2.52,1.09,3.79,1.61c0.48,0.2,0.61,0.1,0.62-0.42C63.45,30.16,63.44,29.79,63.44,29.42
				z"/>
			<path class="st1" d="M73.72,74.92c0.09-0.31,0.16-0.5,0.2-0.7c1.21-7.15,2.42-14.29,3.61-21.44c0.52-3.13,0.98-6.27,1.47-9.41
				c0.14-0.86,0.16-0.87,1.01-0.71c0.77,0.14,1.54,0.25,2.3,0.42c0.16,0.03,0.38,0.25,0.39,0.39c0.1,1.62,0.71,3.07,1.55,4.42
				c1.68,2.71,3.41,5.39,5.08,8.1c1.23,1.98,2.37,4.04,2.82,6.34c0.9,4.56-0.07,8.71-3.17,12.24c-0.9,1.03-1.96,1.92-2.95,2.87
				c-0.13,0.13-0.29,0.28-0.45,0.32c-0.25,0.05-0.58,0.09-0.78-0.03c-0.3-0.19-0.23-0.51-0.05-0.81c0.53-0.9,1.15-1.78,1.56-2.74
				c2.37-5.55,1.7-10.71-2.21-15.35c-0.91-1.08-2.03-1.98-3.07-2.96c-0.12-0.11-0.28-0.18-0.49-0.32c-0.07,0.27-0.14,0.46-0.18,0.67
				c-1.15,6.89-2.29,13.79-3.44,20.69c-0.16,0.94-0.33,1.87-0.45,2.81c-0.29,2.21-1.43,3.8-3.39,4.83c-2.84,1.48-5.79,1.88-8.78,0.6
				c-2.79-1.19-4.01-3.54-4.23-6.45c-0.21-2.86,1.74-5.83,4.38-6.75c1.99-0.69,3.93-0.47,5.74,0.56c0.98,0.56,1.89,1.26,2.83,1.9
				C73.23,74.56,73.43,74.71,73.72,74.92z"/>
			<path class="st1" d="M35.51,96.08c0.12-0.32,0.22-0.54,0.28-0.78c1.34-5.14,2.77-10.26,3.97-15.43
				c1.01-4.38,1.74-8.82,2.59-13.24c0.2-1.04,0.18-1.05,1.24-0.86c0.5,0.09,1,0.22,1.5,0.29c0.4,0.06,0.5,0.27,0.44,0.63
				c-0.29,1.71-0.56,3.42-0.86,5.12c-1.39,7.93-3.24,15.76-5.37,23.52c-0.43,1.57-0.83,3.15-1.26,4.72
				c-0.97,3.55-3.34,5.6-6.87,6.38c-0.74,0.16-1.5,0.27-2.26,0.37c-2.98,0.38-6.28-2.02-6.85-4.96c-0.86-4.46,2.04-8.58,6.46-9.12
				c2.08-0.25,3.87,0.49,5.43,1.83c0.4,0.34,0.75,0.73,1.13,1.1C35.2,95.8,35.32,95.9,35.51,96.08z"/>
		</g>
	</g>
	<g id="JeuLSu_3_">
		<g>
			<path class="st2" d="M20.98,81.4c0.36-0.09,0.75-0.11,1.07-0.27c1.33-0.7,2.06-2.24,1.84-3.89c-0.08-0.58-0.23-1.17-0.4-1.73
				c-0.4-1.31-0.84-2.62-1.26-3.92c-0.22-0.69-0.22-0.71-0.92-0.57c-3.58,0.69-6.9,0-9.92-1.99c-2.47-1.62-4.16-3.92-5.29-6.63
				c-1.07-2.57-1.67-5.24-1.5-8.04c0.16-2.68,0.76-5.26,1.81-7.74c1.19-2.79,2.56-5.47,4.27-7.98c0.3-0.44,0.22-0.84,0.05-1.29
				c-1-2.57-1.85-5.18-2.22-7.92c-0.45-3.35-0.35-6.68,0.47-9.96c0.55-2.19,1.31-4.33,2.84-6.08c0.45-0.51,1.04-0.92,1.58-1.34
				c0.31-0.24,0.6-0.16,0.91,0.1c1.21,1.06,2.04,2.4,2.84,3.76c3.6,6.16,3.45,12.51,0.93,18.96c-0.72,1.85-1.59,3.64-2.42,5.44
				c-0.24,0.53-0.25,1.03-0.06,1.57c0.48,1.34,0.95,2.69,1.4,4.04c0.12,0.35,0.32,0.45,0.64,0.42c0.46-0.05,0.91-0.14,1.37-0.16
				c4.57-0.12,8.03,1.69,10.09,5.86c2.08,4.19,2.05,8.45,0.23,12.7c-0.8,1.86-2.21,3.28-3.79,4.51c-0.38,0.3-0.44,0.57-0.31,1
				c0.5,1.62,1.08,3.23,1.42,4.88c0.45,2.13,0.38,4.29-0.3,6.39c-0.4,1.22-1.14,2.18-2.23,2.87c-3.21,2.03-6.95,1.28-9.15-1.84
				c-1.12-1.6-1.71-3.33-1.21-5.28c0.67-2.61,3.91-4.4,6.51-2.19c1.36,1.16,1.82,3.5,1.03,5.25c-0.14,0.3-0.27,0.6-0.41,0.91
				C20.91,81.28,20.94,81.34,20.98,81.4z M15.76,62c-0.25-0.12-0.34-0.16-0.43-0.21c-0.09-0.05-0.18-0.1-0.26-0.16
				c-1.77-1.32-2.95-3.07-3.46-5.19c-0.64-2.66-0.01-5.1,1.9-7.06c0.88-0.9,0.99-1.67,0.47-2.72c-0.27-0.55-0.43-1.16-0.65-1.79
				c-0.11,0.1-0.18,0.13-0.21,0.18c-0.98,1.8-2.09,3.54-2.9,5.42C9,53.33,8.55,56.32,9.18,59.44c1.07,5.24,5.52,8.07,10.51,7.4
				c0.84-0.11,0.96-0.28,0.7-1.07c-1.13-3.45-2.28-6.89-3.43-10.34c-0.06-0.18-0.18-0.33-0.27-0.5c-0.06-0.01-0.11-0.01-0.17-0.02
				c-0.36,0.74-0.81,1.45-1.05,2.23c-0.24,0.76-0.39,1.6-0.34,2.39C15.17,60.32,15.51,61.09,15.76,62z M13.1,34.7
				c0.18-0.29,0.29-0.42,0.35-0.57c0.65-1.47,1.41-2.9,1.93-4.42c0.92-2.72,1.1-5.51,0.25-8.3c-0.36-1.18-1.01-2.2-1.89-3.13
				c-0.62,0.62-0.98,1.33-1.23,2.08c-1.41,4.35-1.42,8.7,0.04,13.04C12.69,33.79,12.88,34.17,13.1,34.7z M26.66,59.7
				c0-1.36-0.29-2.85-0.78-3.82c-1.01-2-2.56-3.22-4.9-3.22c-1.36,0-1.54,0.26-1.09,1.57c1.18,3.42,2.35,6.83,3.52,10.25
				c0.25,0.73,0.36,0.76,0.95,0.28C26.08,63.39,26.58,61.5,26.66,59.7z"/>
			<path class="st2" d="M44.47,14.25c0.61,0.23,1.15,0.41,1.68,0.62c5.45,2.14,10.9,4.28,16.34,6.42c1.2,0.47,2.4,0.95,3.6,1.4
				c0.37,0.14,0.52,0.34,0.52,0.75c0.01,1.31,0.06,2.61,0.08,3.92c0.1,5.58,0.21,11.17,0.29,16.75c0.06,4.09,0.07,8.18,0.11,12.27
				c0.01,1.12,0.05,2.24,0.05,3.36c-0.01,1.91-0.83,3.44-2.3,4.62c-2.34,1.89-5.02,2.64-8,2.17c-1.89-0.3-3.17-1.54-4.26-3
				c-1.69-2.28-1.64-5.67,0.1-8.01c1.7-2.29,4.81-3.22,7.57-2.21c0.92,0.34,1.78,0.82,2.67,1.24c0.21,0.1,0.42,0.18,0.72,0.31
				c0.05-0.33,0.11-0.57,0.11-0.82c-0.03-3.06-0.06-6.11-0.1-9.17c-0.03-2.78-0.07-5.57-0.08-8.35c0-0.48-0.17-0.72-0.61-0.9
				c-4.64-1.86-9.28-3.75-13.92-5.63c-0.7-0.28-0.84-0.19-0.82,0.59c0.08,2.46,0.18,4.92,0.26,7.38c0.1,3.04,0.19,6.07,0.27,9.11
				c0.06,2.26,0.1,4.51,0.16,6.77c0.04,1.49-0.4,2.75-1.52,3.79c-1.89,1.77-4.04,2.88-6.69,2.91c-2.24,0.02-4-0.9-5.38-2.61
				c-2.55-3.16-1.55-7.02,0.17-8.97c1.62-1.83,4.36-2.74,7.27-1.5c0.68,0.29,1.34,0.66,2.01,0.99c0.22,0.11,0.45,0.19,0.84,0.36
				c-0.07-5.86-0.38-11.57-0.56-17.29C44.89,25.81,44.67,20.08,44.47,14.25z M63.44,29.42c-0.02,0-0.04,0-0.06,0
				c0-0.25-0.02-0.51,0-0.76c0.07-0.69-0.26-1-0.88-1.25c-4.5-1.8-8.99-3.64-13.49-5.46c-0.14-0.06-0.29-0.1-0.44-0.12
				c-0.33-0.05-0.53,0.06-0.52,0.43c0.01,0.76-0.02,1.53,0.03,2.29c0.01,0.21,0.24,0.44,0.41,0.6c0.14,0.13,0.36,0.17,0.55,0.25
				c3.33,1.32,6.66,2.63,9.98,3.96c1.27,0.51,2.52,1.09,3.79,1.61c0.48,0.2,0.61,0.1,0.62-0.42C63.45,30.16,63.44,29.79,63.44,29.42
				z"/>
			<path class="st2" d="M73.72,74.92c0.09-0.31,0.16-0.5,0.2-0.7c1.21-7.15,2.42-14.29,3.61-21.44c0.52-3.13,0.98-6.27,1.47-9.41
				c0.14-0.86,0.16-0.87,1.01-0.71c0.77,0.14,1.54,0.25,2.3,0.42c0.16,0.03,0.38,0.25,0.39,0.39c0.1,1.62,0.71,3.07,1.55,4.42
				c1.68,2.71,3.41,5.39,5.08,8.1c1.23,1.98,2.37,4.04,2.82,6.34c0.9,4.56-0.07,8.71-3.17,12.24c-0.9,1.03-1.96,1.92-2.95,2.87
				c-0.13,0.13-0.29,0.28-0.45,0.32c-0.25,0.05-0.58,0.09-0.78-0.03c-0.3-0.19-0.23-0.51-0.05-0.81c0.53-0.9,1.15-1.78,1.56-2.74
				c2.37-5.55,1.7-10.71-2.21-15.35c-0.91-1.08-2.03-1.98-3.07-2.96c-0.12-0.11-0.28-0.18-0.49-0.32c-0.07,0.27-0.14,0.46-0.18,0.67
				c-1.15,6.89-2.29,13.79-3.44,20.69c-0.16,0.94-0.33,1.87-0.45,2.81c-0.29,2.21-1.43,3.8-3.39,4.83c-2.84,1.48-5.79,1.88-8.78,0.6
				c-2.79-1.19-4.01-3.54-4.23-6.45c-0.21-2.86,1.74-5.83,4.38-6.75c1.99-0.69,3.93-0.47,5.74,0.56c0.98,0.56,1.89,1.26,2.83,1.9
				C73.23,74.56,73.43,74.71,73.72,74.92z"/>
			<path class="st2" d="M35.51,96.08c0.12-0.32,0.22-0.54,0.28-0.78c1.34-5.14,2.77-10.26,3.97-15.43
				c1.01-4.38,1.74-8.82,2.59-13.24c0.2-1.04,0.18-1.05,1.24-0.86c0.5,0.09,1,0.22,1.5,0.29c0.4,0.06,0.5,0.27,0.44,0.63
				c-0.29,1.71-0.56,3.42-0.86,5.12c-1.39,7.93-3.24,15.76-5.37,23.52c-0.43,1.57-0.83,3.15-1.26,4.72
				c-0.97,3.55-3.34,5.6-6.87,6.38c-0.74,0.16-1.5,0.27-2.26,0.37c-2.98,0.38-6.28-2.02-6.85-4.96c-0.86-4.46,2.04-8.58,6.46-9.12
				c2.08-0.25,3.87,0.49,5.43,1.83c0.4,0.34,0.75,0.73,1.13,1.1C35.2,95.8,35.32,95.9,35.51,96.08z"/>
		</g>
	</g>
</g>
</svg>
